<svg xmlns="http://www.w3.org/2000/svg" xmlns:xlink="http://www.w3.org/1999/xlink" width="500" zoomAndPan="magnify" viewBox="0 0 375 374.999991" height="500" preserveAspectRatio="xMidYMid meet" version="1.0"><defs><g/><clipPath id="a5964eba97"><path d="M 152.535156 101.214844 L 325.101562 101.214844 L 325.101562 273.785156 L 152.535156 273.785156 Z M 152.535156 101.214844 " clip-rule="nonzero"/></clipPath><clipPath id="5711c6db6e"><path d="M 238.820312 101.214844 C 191.167969 101.214844 152.535156 139.847656 152.535156 187.5 C 152.535156 235.152344 191.167969 273.785156 238.820312 273.785156 C 286.472656 273.785156 325.101562 235.152344 325.101562 187.5 C 325.101562 139.847656 286.472656 101.214844 238.820312 101.214844 Z M 238.820312 101.214844 " clip-rule="nonzero"/></clipPath><clipPath id="9f4a9010d7"><path d="M 0.535156 0.214844 L 173.101562 0.214844 L 173.101562 172.785156 L 0.535156 172.785156 Z M 0.535156 0.214844 " clip-rule="nonzero"/></clipPath><clipPath id="ddcb37ab2a"><path d="M 86.820312 0.214844 C 39.167969 0.214844 0.535156 38.847656 0.535156 86.5 C 0.535156 134.152344 39.167969 172.785156 86.820312 172.785156 C 134.472656 172.785156 173.101562 134.152344 173.101562 86.5 C 173.101562 38.847656 134.472656 0.214844 86.820312 0.214844 Z M 86.820312 0.214844 " clip-rule="nonzero"/></clipPath><clipPath id="f1bf6b47a4"><rect x="0" width="174" y="0" height="173"/></clipPath><clipPath id="29b0a8c05d"><path d="M 0.535156 0.214844 L 173.101562 0.214844 L 173.101562 172.785156 L 0.535156 172.785156 Z M 0.535156 0.214844 " clip-rule="nonzero"/></clipPath><clipPath id="f03ce7242e"><path d="M 86.820312 0.214844 C 39.167969 0.214844 0.535156 38.847656 0.535156 86.5 C 0.535156 134.152344 39.167969 172.785156 86.820312 172.785156 C 134.472656 172.785156 173.101562 134.152344 173.101562 86.5 C 173.101562 38.847656 134.472656 0.214844 86.820312 0.214844 Z M 86.820312 0.214844 " clip-rule="nonzero"/></clipPath><clipPath id="7c94ad49e3"><rect x="0" width="174" y="0" height="173"/></clipPath><clipPath id="8b9d421cab"><rect x="0" width="160" y="0" height="85"/></clipPath><clipPath id="5b82fe285e"><path d="M 310.933594 245.449219 L 339.269531 245.449219 L 339.269531 273.785156 L 310.933594 273.785156 Z M 310.933594 245.449219 " clip-rule="nonzero"/></clipPath><clipPath id="ed1ea65b67"><path d="M 325.101562 245.449219 C 317.277344 245.449219 310.933594 251.789062 310.933594 259.617188 C 310.933594 267.441406 317.277344 273.785156 325.101562 273.785156 C 332.929688 273.785156 339.269531 267.441406 339.269531 259.617188 C 339.269531 251.789062 332.929688 245.449219 325.101562 245.449219 Z M 325.101562 245.449219 " clip-rule="nonzero"/></clipPath><clipPath id="e9c2ef5c9b"><path d="M 0.933594 0.449219 L 29.269531 0.449219 L 29.269531 28.785156 L 0.933594 28.785156 Z M 0.933594 0.449219 " clip-rule="nonzero"/></clipPath><clipPath id="9f40769fe2"><path d="M 15.101562 0.449219 C 7.277344 0.449219 0.933594 6.789062 0.933594 14.617188 C 0.933594 22.441406 7.277344 28.785156 15.101562 28.785156 C 22.929688 28.785156 29.269531 22.441406 29.269531 14.617188 C 29.269531 6.789062 22.929688 0.449219 15.101562 0.449219 Z M 15.101562 0.449219 " clip-rule="nonzero"/></clipPath><clipPath id="4434bebfe9"><rect x="0" width="30" y="0" height="29"/></clipPath><clipPath id="351335dee1"><rect x="0" width="126" y="0" height="96"/></clipPath></defs><g clip-path="url(#a5964eba97)"><g clip-path="url(#5711c6db6e)"><g transform="matrix(1, 0, 0, 1, 152, 101)"><g clip-path="url(#f1bf6b47a4)"><g clip-path="url(#9f4a9010d7)"><g clip-path="url(#ddcb37ab2a)"><path fill="#ffffff" d="M 0.535156 0.214844 L 173.101562 0.214844 L 173.101562 172.785156 L 0.535156 172.785156 Z M 0.535156 0.214844 " fill-opacity="1" fill-rule="nonzero"/></g></g></g></g><g transform="matrix(1, 0, 0, 1, 152, 101)"><g clip-path="url(#7c94ad49e3)"><g clip-path="url(#29b0a8c05d)"><g clip-path="url(#f03ce7242e)"><path fill="#f85c3a" d="M 0.535156 0.214844 L 173.101562 0.214844 L 173.101562 172.785156 L 0.535156 172.785156 Z M 0.535156 0.214844 " fill-opacity="1" fill-rule="nonzero"/></g></g></g></g></g></g><g transform="matrix(1, 0, 0, 1, 159, 155)"><g clip-path="url(#8b9d421cab)"><g fill="#ffffff" fill-opacity="1"><g transform="translate(0.470458, 64.173694)"><g><path d="M 39.625 -60.734375 L 39.625 -54.703125 L 26.109375 -54.703125 L 26.109375 -6.03125 L 39.625 -6.03125 L 39.625 0 L 5.421875 0 L 5.421875 -6.03125 L 19.046875 -6.03125 L 19.046875 -54.703125 L 5.421875 -54.703125 L 5.421875 -60.734375 Z M 39.625 -60.734375 "/></g></g></g><g fill="#ffffff" fill-opacity="1"><g transform="translate(44.494358, 64.173694)"><g><path d="M 44.71875 -60.734375 L 54.875 -60.734375 L 17.828125 -30.40625 L 54.875 0 L 44.71875 0 L 13.359375 -25.84375 L 13.359375 0 L 6.296875 0 L 6.296875 -60.734375 L 13.359375 -60.734375 L 13.359375 -34.890625 Z M 44.71875 -60.734375 "/></g></g></g><g fill="#ffffff" fill-opacity="1"><g transform="translate(101.871932, 64.173694)"><g><path d="M 4.5625 -22.578125 L 4.5625 -60.734375 L 11.625 -60.734375 L 11.625 -23.6875 C 11.625 -17.539062 12.875 -12.914062 15.375 -9.8125 C 17.875 -6.71875 22.285156 -5.171875 28.609375 -5.171875 C 34.921875 -5.171875 39.335938 -6.71875 41.859375 -9.8125 C 44.390625 -12.914062 45.65625 -17.539062 45.65625 -23.6875 L 45.65625 -60.734375 L 52.734375 -60.734375 L 52.734375 -22.578125 C 52.734375 -14.992188 50.789062 -9.191406 46.90625 -5.171875 C 43.03125 -1.148438 36.929688 0.859375 28.609375 0.859375 C 20.335938 0.859375 14.257812 -1.148438 10.375 -5.171875 C 6.5 -9.191406 4.5625 -14.992188 4.5625 -22.578125 Z M 4.5625 -22.578125 "/></g></g></g></g></g><g clip-path="url(#5b82fe285e)"><g clip-path="url(#ed1ea65b67)"><g transform="matrix(1, 0, 0, 1, 310, 245)"><g clip-path="url(#4434bebfe9)"><g clip-path="url(#e9c2ef5c9b)"><g clip-path="url(#9f40769fe2)"><path fill="#f85c3a" d="M 0.933594 0.449219 L 29.269531 0.449219 L 29.269531 28.785156 L 0.933594 28.785156 Z M 0.933594 0.449219 " fill-opacity="1" fill-rule="nonzero"/></g></g></g></g></g></g><g transform="matrix(1, 0, 0, 1, 31, 139)"><g clip-path="url(#351335dee1)"><g fill="#f85c3a" fill-opacity="1"><g transform="translate(1.060682, 73.923658)"><g><path d="M 63.875 -53.703125 L 30.105469 -53.703125 L 30.105469 -48.859375 L 63.875 -48.859375 Z M 18.546875 -57.925781 C 15.085938 -53.011719 8.441406 -46.78125 2.699219 -42.90625 C 3.597656 -41.9375 4.984375 -39.929688 5.742188 -38.824219 C 11.902344 -43.183594 18.960938 -49.898438 23.460938 -55.988281 Z M 21.382812 -43.183594 C 16.609375 -35.363281 9.136719 -27.40625 2.007812 -22.351562 C 3.046875 -21.316406 4.84375 -19.101562 5.605469 -18.0625 C 8.167969 -20.070312 10.796875 -22.5625 13.425781 -25.261719 L 13.425781 5.46875 L 18.546875 5.46875 L 18.546875 -30.933594 C 21.382812 -34.324219 24.015625 -37.855469 26.160156 -41.386719 Z M 65.882812 -34.808594 L 27.128906 -34.808594 L 27.128906 -29.898438 L 50.242188 -29.898438 L 50.242188 -1.382812 C 50.242188 -0.207031 49.828125 0.0703125 48.511719 0.136719 C 47.199219 0.207031 42.628906 0.207031 37.71875 0.0703125 C 38.476562 1.523438 39.171875 3.667969 39.378906 5.050781 C 46.160156 5.050781 50.035156 5.050781 52.386719 4.289062 C 54.671875 3.460938 55.433594 1.867188 55.433594 -1.316406 L 55.433594 -29.898438 L 65.882812 -29.898438 Z M 65.882812 -34.808594 "/></g></g></g><g fill="#f85c3a" fill-opacity="1"><g transform="translate(62.928048, 73.923658)"><g><path d="M 43.460938 -55.433594 C 42.699219 -54.1875 40.898438 -52.25 39.515625 -50.867188 C 34.878906 -46.160156 24.5 -37.992188 19.378906 -33.632812 C 13.148438 -28.445312 12.457031 -25.328125 18.894531 -19.929688 C 25.328125 -14.671875 36.746094 -4.914062 40.484375 -0.898438 C 41.9375 0.691406 43.808594 2.421875 45.191406 4.082031 L 50.175781 -0.414062 C 43.460938 -7.058594 30.796875 -17.578125 24.566406 -22.5625 C 20.140625 -26.230469 20.140625 -27.265625 24.292969 -30.867188 C 29.34375 -35.019531 39.171875 -42.90625 43.945312 -46.992188 C 45.050781 -47.960938 47.128906 -49.757812 48.652344 -50.867188 Z M 43.460938 -55.433594 "/></g></g></g></g></g></svg>